<mxfile host="app.diagrams.net" modified="2024-02-28T17:23:10.110Z" agent="Mozilla/5.0 (Windows NT 10.0; Win64; x64; rv:109.0) Gecko/20100101 Firefox/115.0" etag="VY9EJjorvOyB2vYwp68q" version="23.1.7" type="github">
  <diagram name="Page-1" id="4cCXQPGyLR-IM04o_rQ0">
    <mxGraphModel dx="1434" dy="754" grid="1" gridSize="10" guides="1" tooltips="1" connect="1" arrows="1" fold="1" page="1" pageScale="1" pageWidth="850" pageHeight="1100" math="0" shadow="0">
      <root>
        <mxCell id="0" />
        <mxCell id="1" parent="0" />
        <mxCell id="LrS78nxfHwzHgghSMV4p-3" value="" style="edgeStyle=orthogonalEdgeStyle;rounded=0;orthogonalLoop=1;jettySize=auto;html=1;" edge="1" parent="1" source="LrS78nxfHwzHgghSMV4p-1" target="LrS78nxfHwzHgghSMV4p-2">
          <mxGeometry relative="1" as="geometry" />
        </mxCell>
        <mxCell id="LrS78nxfHwzHgghSMV4p-1" value="Item List" style="shape=parallelogram;perimeter=parallelogramPerimeter;whiteSpace=wrap;html=1;fixedSize=1;" vertex="1" parent="1">
          <mxGeometry x="50" y="40" width="120" height="60" as="geometry" />
        </mxCell>
        <mxCell id="LrS78nxfHwzHgghSMV4p-5" value="" style="edgeStyle=orthogonalEdgeStyle;rounded=0;orthogonalLoop=1;jettySize=auto;html=1;" edge="1" parent="1" source="LrS78nxfHwzHgghSMV4p-2" target="LrS78nxfHwzHgghSMV4p-4">
          <mxGeometry relative="1" as="geometry" />
        </mxCell>
        <mxCell id="LrS78nxfHwzHgghSMV4p-2" value="Start" style="ellipse;whiteSpace=wrap;html=1;fillColor=#d5e8d4;strokeColor=#82b366;" vertex="1" parent="1">
          <mxGeometry x="50" y="160" width="120" height="80" as="geometry" />
        </mxCell>
        <mxCell id="LrS78nxfHwzHgghSMV4p-7" value="" style="edgeStyle=orthogonalEdgeStyle;rounded=0;orthogonalLoop=1;jettySize=auto;html=1;" edge="1" parent="1" source="LrS78nxfHwzHgghSMV4p-4" target="LrS78nxfHwzHgghSMV4p-6">
          <mxGeometry relative="1" as="geometry" />
        </mxCell>
        <mxCell id="LrS78nxfHwzHgghSMV4p-4" value="Set End of Range to last Item List" style="rounded=1;whiteSpace=wrap;html=1;" vertex="1" parent="1">
          <mxGeometry x="50" y="330" width="120" height="60" as="geometry" />
        </mxCell>
        <mxCell id="LrS78nxfHwzHgghSMV4p-9" value="" style="edgeStyle=orthogonalEdgeStyle;rounded=0;orthogonalLoop=1;jettySize=auto;html=1;" edge="1" parent="1" source="LrS78nxfHwzHgghSMV4p-6" target="LrS78nxfHwzHgghSMV4p-8">
          <mxGeometry relative="1" as="geometry" />
        </mxCell>
        <mxCell id="LrS78nxfHwzHgghSMV4p-6" value="Set Pass Counter to length of list -1" style="rounded=1;whiteSpace=wrap;html=1;" vertex="1" parent="1">
          <mxGeometry x="50" y="470" width="120" height="60" as="geometry" />
        </mxCell>
        <mxCell id="LrS78nxfHwzHgghSMV4p-11" value="" style="edgeStyle=orthogonalEdgeStyle;rounded=0;orthogonalLoop=1;jettySize=auto;html=1;" edge="1" parent="1" source="LrS78nxfHwzHgghSMV4p-8" target="LrS78nxfHwzHgghSMV4p-10">
          <mxGeometry relative="1" as="geometry" />
        </mxCell>
        <mxCell id="LrS78nxfHwzHgghSMV4p-8" value="" style="ellipse;whiteSpace=wrap;html=1;aspect=fixed;fillColor=#f5f5f5;fontColor=#333333;strokeColor=#666666;" vertex="1" parent="1">
          <mxGeometry x="100" y="570" width="20" height="20" as="geometry" />
        </mxCell>
        <mxCell id="LrS78nxfHwzHgghSMV4p-13" value="" style="edgeStyle=orthogonalEdgeStyle;rounded=0;orthogonalLoop=1;jettySize=auto;html=1;" edge="1" parent="1" source="LrS78nxfHwzHgghSMV4p-10" target="LrS78nxfHwzHgghSMV4p-12">
          <mxGeometry relative="1" as="geometry" />
        </mxCell>
        <mxCell id="LrS78nxfHwzHgghSMV4p-17" value="No" style="edgeLabel;html=1;align=center;verticalAlign=middle;resizable=0;points=[];" vertex="1" connectable="0" parent="LrS78nxfHwzHgghSMV4p-13">
          <mxGeometry x="0.0947" y="-1" relative="1" as="geometry">
            <mxPoint as="offset" />
          </mxGeometry>
        </mxCell>
        <mxCell id="LrS78nxfHwzHgghSMV4p-15" value="" style="edgeStyle=orthogonalEdgeStyle;rounded=0;orthogonalLoop=1;jettySize=auto;html=1;" edge="1" parent="1" source="LrS78nxfHwzHgghSMV4p-10" target="LrS78nxfHwzHgghSMV4p-14">
          <mxGeometry relative="1" as="geometry" />
        </mxCell>
        <mxCell id="LrS78nxfHwzHgghSMV4p-16" value="Yes" style="edgeLabel;html=1;align=center;verticalAlign=middle;resizable=0;points=[];" vertex="1" connectable="0" parent="LrS78nxfHwzHgghSMV4p-15">
          <mxGeometry x="-0.2889" y="2" relative="1" as="geometry">
            <mxPoint as="offset" />
          </mxGeometry>
        </mxCell>
        <mxCell id="LrS78nxfHwzHgghSMV4p-10" value="Is Pass Counter &amp;gt;0?" style="rhombus;whiteSpace=wrap;html=1;" vertex="1" parent="1">
          <mxGeometry x="15" y="640" width="190" height="80" as="geometry" />
        </mxCell>
        <mxCell id="LrS78nxfHwzHgghSMV4p-12" value="End" style="ellipse;whiteSpace=wrap;html=1;fillColor=#f8cecc;strokeColor=#b85450;" vertex="1" parent="1">
          <mxGeometry x="300" y="640" width="120" height="80" as="geometry" />
        </mxCell>
        <mxCell id="LrS78nxfHwzHgghSMV4p-19" value="" style="edgeStyle=orthogonalEdgeStyle;rounded=0;orthogonalLoop=1;jettySize=auto;html=1;" edge="1" parent="1" source="LrS78nxfHwzHgghSMV4p-14" target="LrS78nxfHwzHgghSMV4p-18">
          <mxGeometry relative="1" as="geometry" />
        </mxCell>
        <mxCell id="LrS78nxfHwzHgghSMV4p-14" value="Set Current Item to first item in Item List" style="rounded=1;whiteSpace=wrap;html=1;" vertex="1" parent="1">
          <mxGeometry x="50" y="810" width="120" height="60" as="geometry" />
        </mxCell>
        <mxCell id="LrS78nxfHwzHgghSMV4p-21" value="" style="edgeStyle=orthogonalEdgeStyle;rounded=0;orthogonalLoop=1;jettySize=auto;html=1;" edge="1" parent="1" source="LrS78nxfHwzHgghSMV4p-18" target="LrS78nxfHwzHgghSMV4p-20">
          <mxGeometry relative="1" as="geometry" />
        </mxCell>
        <mxCell id="LrS78nxfHwzHgghSMV4p-18" value="" style="ellipse;whiteSpace=wrap;html=1;aspect=fixed;fillColor=#f5f5f5;fontColor=#333333;strokeColor=#666666;" vertex="1" parent="1">
          <mxGeometry x="100" y="910" width="20" height="20" as="geometry" />
        </mxCell>
        <mxCell id="LrS78nxfHwzHgghSMV4p-23" value="" style="edgeStyle=orthogonalEdgeStyle;rounded=0;orthogonalLoop=1;jettySize=auto;html=1;" edge="1" parent="1" source="LrS78nxfHwzHgghSMV4p-20" target="LrS78nxfHwzHgghSMV4p-22">
          <mxGeometry relative="1" as="geometry" />
        </mxCell>
        <mxCell id="LrS78nxfHwzHgghSMV4p-24" value="No" style="edgeLabel;html=1;align=center;verticalAlign=middle;resizable=0;points=[];" vertex="1" connectable="0" parent="LrS78nxfHwzHgghSMV4p-23">
          <mxGeometry x="-0.0435" y="1" relative="1" as="geometry">
            <mxPoint as="offset" />
          </mxGeometry>
        </mxCell>
        <mxCell id="LrS78nxfHwzHgghSMV4p-26" value="" style="edgeStyle=orthogonalEdgeStyle;rounded=0;orthogonalLoop=1;jettySize=auto;html=1;" edge="1" parent="1" source="LrS78nxfHwzHgghSMV4p-20" target="LrS78nxfHwzHgghSMV4p-25">
          <mxGeometry relative="1" as="geometry" />
        </mxCell>
        <mxCell id="LrS78nxfHwzHgghSMV4p-27" value="Yes" style="edgeLabel;html=1;align=center;verticalAlign=middle;resizable=0;points=[];" vertex="1" connectable="0" parent="LrS78nxfHwzHgghSMV4p-26">
          <mxGeometry x="-0.4222" y="2" relative="1" as="geometry">
            <mxPoint as="offset" />
          </mxGeometry>
        </mxCell>
        <mxCell id="LrS78nxfHwzHgghSMV4p-20" value="Is Current Item the End of Range?" style="rhombus;whiteSpace=wrap;html=1;" vertex="1" parent="1">
          <mxGeometry x="15" y="960" width="190" height="80" as="geometry" />
        </mxCell>
        <mxCell id="LrS78nxfHwzHgghSMV4p-31" value="" style="edgeStyle=orthogonalEdgeStyle;rounded=0;orthogonalLoop=1;jettySize=auto;html=1;" edge="1" parent="1" source="LrS78nxfHwzHgghSMV4p-22" target="LrS78nxfHwzHgghSMV4p-30">
          <mxGeometry relative="1" as="geometry" />
        </mxCell>
        <mxCell id="LrS78nxfHwzHgghSMV4p-22" value="Set Next Item to item after Current Item in Item List" style="rounded=1;whiteSpace=wrap;html=1;" vertex="1" parent="1">
          <mxGeometry x="320" y="970" width="120" height="60" as="geometry" />
        </mxCell>
        <mxCell id="LrS78nxfHwzHgghSMV4p-29" value="" style="edgeStyle=orthogonalEdgeStyle;rounded=0;orthogonalLoop=1;jettySize=auto;html=1;" edge="1" parent="1" source="LrS78nxfHwzHgghSMV4p-25" target="LrS78nxfHwzHgghSMV4p-28">
          <mxGeometry relative="1" as="geometry" />
        </mxCell>
        <mxCell id="LrS78nxfHwzHgghSMV4p-25" value="Subtract 1 from Pass Counter" style="rounded=1;whiteSpace=wrap;html=1;" vertex="1" parent="1">
          <mxGeometry x="50" y="1130" width="120" height="60" as="geometry" />
        </mxCell>
        <mxCell id="LrS78nxfHwzHgghSMV4p-28" value="Set End of Range one item closer to start of list" style="rounded=1;whiteSpace=wrap;html=1;" vertex="1" parent="1">
          <mxGeometry x="50" y="1270" width="120" height="60" as="geometry" />
        </mxCell>
        <mxCell id="LrS78nxfHwzHgghSMV4p-35" value="" style="edgeStyle=orthogonalEdgeStyle;rounded=0;orthogonalLoop=1;jettySize=auto;html=1;" edge="1" parent="1" source="LrS78nxfHwzHgghSMV4p-30" target="LrS78nxfHwzHgghSMV4p-34">
          <mxGeometry relative="1" as="geometry" />
        </mxCell>
        <mxCell id="LrS78nxfHwzHgghSMV4p-38" value="Yes" style="edgeLabel;html=1;align=center;verticalAlign=middle;resizable=0;points=[];" vertex="1" connectable="0" parent="LrS78nxfHwzHgghSMV4p-35">
          <mxGeometry x="-0.113" y="-3" relative="1" as="geometry">
            <mxPoint as="offset" />
          </mxGeometry>
        </mxCell>
        <mxCell id="LrS78nxfHwzHgghSMV4p-37" value="" style="edgeStyle=orthogonalEdgeStyle;rounded=0;orthogonalLoop=1;jettySize=auto;html=1;" edge="1" parent="1" source="LrS78nxfHwzHgghSMV4p-30" target="LrS78nxfHwzHgghSMV4p-36">
          <mxGeometry relative="1" as="geometry" />
        </mxCell>
        <mxCell id="LrS78nxfHwzHgghSMV4p-39" value="No" style="edgeLabel;html=1;align=center;verticalAlign=middle;resizable=0;points=[];" vertex="1" connectable="0" parent="LrS78nxfHwzHgghSMV4p-37">
          <mxGeometry x="-0.2667" y="2" relative="1" as="geometry">
            <mxPoint as="offset" />
          </mxGeometry>
        </mxCell>
        <mxCell id="LrS78nxfHwzHgghSMV4p-30" value="Does Current Item need to be swapped with Next Item?" style="rhombus;whiteSpace=wrap;html=1;" vertex="1" parent="1">
          <mxGeometry x="285" y="1120" width="190" height="80" as="geometry" />
        </mxCell>
        <mxCell id="LrS78nxfHwzHgghSMV4p-42" value="" style="edgeStyle=orthogonalEdgeStyle;rounded=0;orthogonalLoop=1;jettySize=auto;html=1;" edge="1" parent="1" source="LrS78nxfHwzHgghSMV4p-34" target="LrS78nxfHwzHgghSMV4p-40">
          <mxGeometry relative="1" as="geometry" />
        </mxCell>
        <mxCell id="LrS78nxfHwzHgghSMV4p-34" value="Swap Current Item and Next Item" style="rounded=1;whiteSpace=wrap;html=1;" vertex="1" parent="1">
          <mxGeometry x="590" y="1130" width="120" height="60" as="geometry" />
        </mxCell>
        <mxCell id="LrS78nxfHwzHgghSMV4p-43" value="" style="edgeStyle=orthogonalEdgeStyle;rounded=0;orthogonalLoop=1;jettySize=auto;html=1;" edge="1" parent="1" source="LrS78nxfHwzHgghSMV4p-36" target="LrS78nxfHwzHgghSMV4p-40">
          <mxGeometry relative="1" as="geometry" />
        </mxCell>
        <mxCell id="LrS78nxfHwzHgghSMV4p-36" value="Set Current Item to Next Item" style="rounded=1;whiteSpace=wrap;html=1;" vertex="1" parent="1">
          <mxGeometry x="320" y="1290" width="120" height="60" as="geometry" />
        </mxCell>
        <mxCell id="LrS78nxfHwzHgghSMV4p-45" value="" style="edgeStyle=orthogonalEdgeStyle;rounded=0;orthogonalLoop=1;jettySize=auto;html=1;entryX=1;entryY=0.5;entryDx=0;entryDy=0;" edge="1" parent="1" source="LrS78nxfHwzHgghSMV4p-40" target="LrS78nxfHwzHgghSMV4p-18">
          <mxGeometry relative="1" as="geometry">
            <mxPoint x="180" y="920" as="targetPoint" />
            <Array as="points">
              <mxPoint x="801" y="1320" />
              <mxPoint x="801" y="920" />
            </Array>
          </mxGeometry>
        </mxCell>
        <mxCell id="LrS78nxfHwzHgghSMV4p-40" value="" style="ellipse;whiteSpace=wrap;html=1;aspect=fixed;fillColor=#f5f5f5;fontColor=#333333;strokeColor=#666666;" vertex="1" parent="1">
          <mxGeometry x="640" y="1310" width="20" height="20" as="geometry" />
        </mxCell>
        <mxCell id="LrS78nxfHwzHgghSMV4p-51" value="" style="endArrow=classic;html=1;rounded=0;exitX=0.5;exitY=1;exitDx=0;exitDy=0;entryX=0;entryY=0.5;entryDx=0;entryDy=0;" edge="1" parent="1" source="LrS78nxfHwzHgghSMV4p-28" target="LrS78nxfHwzHgghSMV4p-8">
          <mxGeometry width="50" height="50" relative="1" as="geometry">
            <mxPoint x="400" y="1220" as="sourcePoint" />
            <mxPoint x="10" y="580" as="targetPoint" />
            <Array as="points">
              <mxPoint x="110" y="1400" />
              <mxPoint x="10" y="1400" />
              <mxPoint x="10" y="580" />
            </Array>
          </mxGeometry>
        </mxCell>
      </root>
    </mxGraphModel>
  </diagram>
</mxfile>
